<svg width="254" height="90" viewBox="0 0 254 90" fill="none" xmlns="http://www.w3.org/2000/svg">
<path d="M3.35116 1.57733C3.36162 1.5575 3.37157 1.53947 3.38096 1.52312C7.73431 1.64355 12.0801 1.7221 16.4199 1.80054C23.2162 1.92339 29.9979 2.04598 36.7711 2.3287L36.7718 2.32873C44.4252 2.64466 52.143 3.145 59.8942 3.64752C73.8305 4.55101 87.875 5.46152 101.849 5.31992L101.849 5.31991C105.871 5.27802 109.969 5.03196 114.058 4.7864L114.371 4.76761C118.578 4.51513 122.779 4.26837 126.96 4.23745C135.32 4.17564 143.486 4.98076 151.174 8.26912L151.422 8.3753L151.692 8.38827L252.338 13.2288C252.315 15.7856 252.321 18.4267 252.326 21.0999C252.34 28.2664 252.354 35.6635 251.838 42.2834L251.838 42.2836C250.838 55.128 249.773 67.6835 240.297 76.2578C229.843 85.7034 210.671 89.799 192.404 87.7902C174.112 85.7787 157.5 77.7458 151.647 63.8091L151.647 63.809C148.65 56.6763 148.354 48.9606 148.687 40.9334C148.777 38.7726 148.914 36.5775 149.052 34.3669C149.419 28.4753 149.793 22.4741 149.298 16.7214L149.268 16.3757L149.09 16.0783C148.795 15.5876 148.334 15.2343 147.966 14.9934C147.563 14.7295 147.086 14.484 146.587 14.2582C145.585 13.8052 144.355 13.371 143.125 12.9898C140.688 12.234 138.038 11.6211 136.85 11.4804L136.846 11.48C134.287 11.1834 127.048 10.8785 120.241 11.2447C116.838 11.4276 113.467 11.7817 110.811 12.4135C109.488 12.7284 108.269 13.1288 107.295 13.654C106.352 14.1618 105.406 14.9112 105.023 16.0376L104.966 16.2061L104.95 16.3833C104.529 20.9828 104.456 25.6831 104.384 30.3061C104.378 30.6671 104.373 31.0276 104.367 31.3876C104.287 36.3825 104.177 41.2781 103.618 45.9933C102.504 55.3892 99.625 63.9102 91.7729 70.695L91.7727 70.6952C82.8871 78.3756 67.8117 81.9409 52.5008 81.5355C37.1981 81.1303 22.142 76.7705 13.3468 69.1371L13.3468 69.1371C5.46055 62.2934 2.5608 54.3125 1.75605 45.5909C1.17052 39.2452 1.69264 32.6339 2.2347 25.7702C2.44977 23.047 2.66798 20.284 2.8214 17.482L2.82141 17.4818C2.87289 16.5388 2.81182 15.0219 2.74555 13.3756L2.74196 13.2864C2.67252 11.5608 2.59437 9.61602 2.59989 7.75569C2.60545 5.87921 2.69692 4.17566 2.9411 2.9155C3.0639 2.28173 3.20999 1.84506 3.35116 1.57733ZM13.0112 8.512L12.3448 8.47749L11.873 8.94933L10.373 10.4493L9.93747 10.8848L9.93367 11.5007C9.90625 15.9487 9.54843 20.4381 9.19068 24.9267C9.09723 26.0991 9.00379 27.2714 8.91625 28.4429C8.49679 34.0561 8.21492 39.6333 8.79017 44.8543C9.36732 50.0925 10.8139 55.0478 13.9048 59.3858C17.0018 63.7321 21.6665 67.3426 28.4843 70.0258C39.1728 74.2325 55.1298 76.1576 68.9184 73.346C82.7183 70.5321 94.8117 62.8284 96.6728 47.4401L96.6805 47.3767L96.6827 47.3128L97.8427 14.3828L97.8946 12.9083L96.4212 12.832L13.0112 8.512ZM245.804 20.87V19.4315L244.366 19.3713L159.296 15.8113L158.793 15.7902L158.379 16.0773C158.072 16.2901 157.913 16.5607 157.852 16.6701C157.773 16.8111 157.717 16.9505 157.677 17.061C157.597 17.2845 157.531 17.541 157.474 17.7955C157.358 18.3132 157.246 18.9904 157.138 19.7541C156.921 21.2905 156.705 23.2997 156.51 25.3576C156.122 29.47 155.811 33.8753 155.755 35.2691L155.755 35.2694C155.392 44.2384 155.168 52.3986 157.488 59.2993C159.861 66.3553 164.833 71.9648 174.451 76.022C189.741 82.4731 208.93 83.5881 224.522 77.456C231.058 74.8874 235.513 71.3995 238.518 67.1952C241.513 63.005 242.99 58.2123 243.752 53.16C244.473 48.3829 244.566 43.278 244.659 38.1613C244.664 37.889 244.669 37.6167 244.674 37.3443C244.775 31.9143 244.914 26.4585 245.784 21.1214L245.804 21.0015V20.88V20.87ZM63.1085 22.7334C61.9696 18.2238 57.8707 14.9002 53.0118 14.9331C49.8979 14.9542 47.1147 16.3495 45.2336 18.54C47.0423 16.1069 49.9313 14.5223 53.1965 14.5002C58.1397 14.4668 62.2695 18.0258 63.1085 22.7334ZM213.264 33.4254C213.268 33.9866 213.229 34.5382 213.152 35.0774C213.169 34.8094 213.178 34.5387 213.176 34.2659C213.134 28.1303 208.126 23.19 201.991 23.2315C197.406 23.2626 193.489 26.066 191.819 30.0409C193.26 25.6872 197.349 22.5329 202.19 22.5001C208.265 22.459 213.223 27.3504 213.264 33.4254ZM3.48057 1.38093C3.48312 1.37845 3.48444 1.3774 3.48447 1.3775C3.48449 1.37759 3.48322 1.37883 3.48057 1.38093Z" stroke="#8E19F5" stroke-width="3"/>
</svg>
